<svg width="0" height="0" class="hidden">

    <symbol fill="none" xmlns="http://www.w3.org/2000/svg" viewBox="0 0 22 22" id="clock">
        <path d="M10.989 0C4.917 0 0 4.928 0 11s4.917 11 10.989 11C17.072 22 22 17.072 22 11S17.072 0 10.989 0zM11 19.8A8.798 8.798 0 012.2 11c0-4.862 3.938-8.8 8.8-8.8s8.8 3.938 8.8 8.8-3.938 8.8-8.8 8.8zm.55-14.3H9.9v6.6l5.775 3.465.825-1.353-4.95-2.937V5.5z"
              fill="#000"></path>
    </symbol>


    <symbol id="search" xmlns="http://www.w3.org/2000/svg" xmlns:xlink="http://www.w3.org/1999/xlink" aria-hidden="true"
            role="img" preserveAspectRatio="xMidYMid meet" viewBox="0 0 24 24">

        <path d="M21 21l-4.486-4.494M19 10.5a8.5 8.5 0 1 1-17 0a8.5 8.5 0 0 1 17 0z" stroke-width="2"
              stroke-linecap="round"/>

    </symbol>

    <symbol id="burger" xmlns="http://www.w3.org/2000/svg" xmlns:xlink="http://www.w3.org/1999/xlink" aria-hidden="true"
            role="img" preserveAspectRatio="xMidYMid meet" viewBox="0 0 24 24">
        <path d="M4 6h16v2H4zm0 5h16v2H4zm0 5h16v2H4z"/>
    </symbol>


    <symbol id="close" xmlns="http://www.w3.org/2000/svg" xmlns:xlink="http://www.w3.org/1999/xlink" aria-hidden="true"
            role="img" preserveAspectRatio="xMidYMid meet" viewBox="0 0 24 24">
        <path  d="M15.59 7L12 10.59L8.41 7L7 8.41L10.59 12L7 15.59L8.41 17L12 13.41L15.59 17L17 15.59L13.41 12L17 8.41L15.59 7z"/>
    </symbol>

    <symbol id="mark" fill="none" xmlns="http://www.w3.org/2000/svg" viewBox="0 0 11 8" >
        <path d="M1 2.25L4.85714 6L10 1" stroke="#414042" stroke-width="2"></path>
    </symbol>

    <symbol id="lock" fill="none" xmlns="http://www.w3.org/2000/svg" viewBox="0 0 22 27" >
        <path d="M18.3516 9.91406H16.4512V5.57771C16.4512 2.50214 13.8962 0 10.7559 0C7.61548 0 5.06055 2.50214 5.06055 5.57771V9.91406H3.16406C1.4194 9.91406 0 11.3335 0 13.0781V23.8359C0 25.5806 1.4194 27 3.16406 27H18.3516C20.0962 27 21.5156 25.5806 21.5156 23.8359V13.0781C21.5156 11.3335 20.0962 9.91406 18.3516 9.91406ZM7.16992 5.57771C7.16992 3.66525 8.77859 2.10938 10.7559 2.10938C12.7331 2.10938 14.3418 3.66525 14.3418 5.57771V9.91406H7.16992V5.57771ZM19.4062 23.8359C19.4062 24.4175 18.9331 24.8906 18.3516 24.8906H3.16406C2.58251 24.8906 2.10938 24.4175 2.10938 23.8359V13.0781C2.10938 12.4966 2.58251 12.0234 3.16406 12.0234H18.3516C18.9331 12.0234 19.4062 12.4966 19.4062 13.0781V23.8359Z" fill="white"></path>
        <path d="M10.7578 15.082C9.68019 15.082 8.80664 15.9556 8.80664 17.0332C8.80664 17.7213 9.16312 18.3257 9.70117 18.6731V20.9883C9.70117 21.5707 10.1734 22.043 10.7559 22.043C11.3383 22.043 11.8105 21.5707 11.8105 20.9883V18.6756C12.3508 18.3286 12.709 17.723 12.709 17.0332C12.709 15.9556 11.8354 15.082 10.7578 15.082Z" fill="white"></path>
    </symbol>



    <symbol fill="none" xmlns="http://www.w3.org/2000/svg" viewBox="0 0 911 24" id="bar">
        <g opacity="0.2">
            <mask id="mask0" maskType="alpha" maskUnits="userSpaceOnUse" x="0" y="-1" width="911" height="25">
                <rect x="911" y="24" width="911" height="24.0001" rx="12" transform="rotate(180 911 24)" fill="url(#paint0_linear)"></rect>
            </mask>
            <g mask="url(#mask0)">
                <rect x="898" y="-8.98413" width="20" height="57" transform="rotate(-26.7942 898 -8.98413)" fill="white"></rect>
                <rect x="810" y="-8.98413" width="20" height="57" transform="rotate(-26.7942 810 -8.98413)" fill="white"></rect>
                <rect x="722" y="-8.98413" width="20" height="57" transform="rotate(-26.7942 722 -8.98413)" fill="white"></rect>
                <rect x="634" y="-8.98413" width="20" height="57" transform="rotate(-26.7942 634 -8.98413)" fill="white"></rect>
                <rect x="546" y="-8.98413" width="20" height="57" transform="rotate(-26.7942 546 -8.98413)" fill="white"></rect>
                <rect x="458" y="-8.98413" width="20" height="57" transform="rotate(-26.7942 458 -8.98413)" fill="white"></rect>
                <rect x="370" y="-8.98413" width="20" height="57" transform="rotate(-26.7942 370 -8.98413)" fill="white"></rect>
                <rect x="282" y="-8.98413" width="20" height="57" transform="rotate(-26.7942 282 -8.98413)" fill="white"></rect>
                <rect x="194" y="-8.98413" width="20" height="57" transform="rotate(-26.7942 194 -8.98413)" fill="white"></rect>
                <rect x="106" y="-8.98413" width="20" height="57" transform="rotate(-26.7942 106 -8.98413)" fill="white"></rect>
                <rect x="18" y="-8.98413" width="20" height="57" transform="rotate(-26.7942 18 -8.98413)" fill="white"></rect>
                <rect x="854" y="-8.98413" width="20" height="57" transform="rotate(-26.7942 854 -8.98413)" fill="white"></rect>
                <rect x="766" y="-8.98413" width="20" height="57" transform="rotate(-26.7942 766 -8.98413)" fill="white"></rect>
                <rect x="678" y="-8.98413" width="20" height="57" transform="rotate(-26.7942 678 -8.98413)" fill="white"></rect>
                <rect x="590" y="-8.98413" width="20" height="57" transform="rotate(-26.7942 590 -8.98413)" fill="white"></rect>
                <rect x="502" y="-8.98413" width="20" height="57" transform="rotate(-26.7942 502 -8.98413)" fill="white"></rect>
                <rect x="414" y="-8.98413" width="20" height="57" transform="rotate(-26.7942 414 -8.98413)" fill="white"></rect>
                <rect x="326" y="-8.98413" width="20" height="57" transform="rotate(-26.7942 326 -8.98413)" fill="white"></rect>
                <rect x="238" y="-8.98413" width="20" height="57" transform="rotate(-26.7942 238 -8.98413)" fill="white"></rect>
                <rect x="150" y="-8.98413" width="20" height="57" transform="rotate(-26.7942 150 -8.98413)" fill="white"></rect>
                <rect x="62" y="-8.98413" width="20" height="57" transform="rotate(-26.7942 62 -8.98413)" fill="white"></rect>
                <rect x="-26" y="-8.98413" width="20" height="57" transform="rotate(-26.7942 -26 -8.98413)" fill="white"></rect>
            </g>
        </g>
        <defs>
            <linearGradient id="paint0_linear" x1="1312.14" y1="-73.0005" x2="1573.81" y2="102.094" gradientUnits="userSpaceOnUse">
                <stop stop-color="#EBB745"></stop>
                <stop offset="1" stop-color="#FAD873"></stop>
            </linearGradient>
        </defs>
    </symbol>


    <symbol fill="none" xmlns="http://www.w3.org/2000/svg" viewBox="0 0 172 172" id="decor">
        <circle cx="86" cy="86" r="85.5" stroke="#EBB745" stroke-dasharray="5 5"></circle>
        <circle cx="86" cy="86" r="55.5" stroke="#EBB745" stroke-dasharray="5 5"></circle>
        <circle cx="85.5" cy="85.5" r="37.5" fill="#FFE484"></circle>
    </symbol>

    <symbol fill="none" xmlns="http://www.w3.org/2000/svg" viewBox="0 0 11 11" id="bird">
        <rect width="11" height="11" rx="1" fill="#F0F0F0"></rect>
        <path fill-rule="evenodd" clip-rule="evenodd" d="M8.25 4.33631L5.67929 7.03183L4.82238 7.93042L3.96548 7.03183L3.97023 7.02685L2.75 5.73345L3.60713 4.83487L4.82714 6.12849L7.3931 3.4375L8.25 4.33631Z" fill="#1F1F1F"></path>
    </symbol>

    <symbol fill="none" xmlns="http://www.w3.org/2000/svg" viewBox="0 0 22 8" id="Arrow-2">
        <path d="M21.3536 4.35356C21.5488 4.15829 21.5488 3.84171 21.3536 3.64645L18.1716 0.464468C17.9763 0.269205 17.6597 0.269205 17.4645 0.464468C17.2692 0.65973 17.2692 0.976312 17.4645 1.17157L20.2929 4L17.4645 6.82843C17.2692 7.02369 17.2692 7.34027 17.4645 7.53554C17.6597 7.7308 17.9763 7.7308 18.1716 7.53554L21.3536 4.35356ZM-4.37114e-08 4.5L21 4.5L21 3.5L4.37114e-08 3.5L-4.37114e-08 4.5Z" fill="black"></path>
    </symbol>

    <symbol fill="none" xmlns="http://www.w3.org/2000/svg" viewBox="0 0 26 26" id="Instagram">
        <path fill-rule="evenodd" clip-rule="evenodd" d="M0.918945 13.3608C0.918945 16.74 0.933721 17.1641 0.994121 18.4914C1.05478 19.816 1.26449 20.7202 1.5722 21.5114C1.89001 22.3297 2.31514 23.024 3.00702 23.7156C3.69864 24.4077 4.39285 24.8328 5.21097 25.1517C6.00239 25.4602 6.90683 25.6701 8.23096 25.7298C9.55821 25.7891 9.98256 25.8047 13.3618 25.8047C16.7411 25.8047 17.1639 25.7897 18.4912 25.7295C19.8158 25.6686 20.72 25.4589 21.5112 25.1514C22.3295 24.8334 23.0238 24.4082 23.7154 23.7164C24.4075 23.025 24.8337 22.3308 25.1515 21.5129C25.4592 20.7212 25.6689 19.8168 25.7296 18.4924C25.79 17.1652 25.8047 16.7413 25.8047 13.3623C25.8047 9.98276 25.79 9.55996 25.7296 8.23272C25.6689 6.90807 25.4592 6.00285 25.1515 5.21117C24.8337 4.39305 24.4075 3.69988 23.7154 3.00852C23.0238 2.31638 22.3295 1.89125 21.5114 1.5724C20.72 1.26651 19.8156 1.05654 18.4914 0.994325C17.1642 0.934703 16.7411 0.919149 13.3618 0.919149C9.98256 0.919149 9.55846 0.934703 8.23122 0.994325C6.90657 1.05654 6.00239 1.26651 5.21123 1.5724C4.39285 1.89125 3.69864 2.31638 3.00702 3.00852C2.31488 3.70066 1.88975 4.39279 1.5722 5.21195C1.26449 6.00518 1.05478 6.90989 0.99412 8.23454C0.933721 9.56178 0.918945 9.98432 0.918945 13.3646L0.918945 13.3608ZM3.15909 14.4761C3.15857 14.1448 3.15909 13.7752 3.15909 13.3599C3.15909 10.0376 3.17101 9.64386 3.23064 8.33191C3.28611 7.11873 3.48883 6.46029 3.65914 6.02168C3.88467 5.44102 4.15426 5.02703 4.58976 4.59179C5.02527 4.15628 5.44003 3.88669 6.0207 3.66064C6.45879 3.49033 7.11723 3.28736 8.33041 3.23214C9.6421 3.17252 10.0361 3.15956 13.3568 3.15956C16.6775 3.15956 17.0715 3.17252 18.3832 3.23214C19.5964 3.28762 20.2549 3.49033 20.693 3.66064C21.2736 3.88617 21.6871 4.15628 22.1223 4.59179C22.5578 5.02729 22.8274 5.44075 23.053 6.02168C23.224 6.45977 23.4262 7.11873 23.4817 8.33191C23.5413 9.6436 23.5543 10.0376 23.5543 13.3599C23.5543 16.6824 23.5413 17.0762 23.4817 18.3879C23.4257 19.601 23.223 20.2595 23.0527 20.6983C22.8272 21.279 22.5576 21.6938 22.1221 22.1293C21.6866 22.5648 21.2728 22.8344 20.6919 23.0604C20.2538 23.2307 19.5954 23.4337 18.3822 23.4889C17.0705 23.5485 16.6765 23.5605 13.3537 23.5605C10.0309 23.5605 9.63899 23.5485 8.3273 23.4889C7.11412 23.4334 6.45568 23.2307 6.01707 23.0604C5.4364 22.8349 5.02164 22.5648 4.58614 22.1293C4.15063 21.6938 3.88104 21.279 3.65499 20.6983C3.4839 20.2597 3.2817 19.601 3.22597 18.3879C3.17413 17.24 3.15857 16.7952 3.15598 14.4761L3.15909 14.4761ZM5.22737 6.7199C5.22737 7.54424 5.8954 8.21305 6.72 8.21305C7.54434 8.21305 8.21315 7.54424 8.21315 6.7199C8.21315 5.89556 7.54434 5.22675 6.72 5.22675C5.89566 5.22675 5.22685 5.89556 5.22685 6.7199L5.22737 6.7199ZM6.97214 13.3605C6.97214 16.8894 9.83323 19.7504 13.3621 19.7504C16.8909 19.7504 19.7507 16.8894 19.7507 13.3605C19.7507 9.83164 16.8909 6.97159 13.3621 6.97159C9.83323 6.97159 6.97214 9.8319 6.97214 13.3608L6.97214 13.3605ZM9.21405 13.3616C9.21405 11.071 11.0709 9.21392 13.3617 9.21392C15.6522 9.21392 17.5093 11.071 17.5093 13.3616C17.5093 15.6523 15.6522 17.5092 13.3617 17.5092C11.0709 17.5092 9.21405 15.6523 9.21405 13.3616Z" fill="#EBB745"></path>
    </symbol>

    <symbol fill="none" xmlns="http://www.w3.org/2000/svg" viewBox="0 0 62 62" id="arrow-yellow">
        <circle cx="31" cy="31" r="31" fill="#EBB745"></circle>
        <path d="M29 36.5858V25.4142C29 24.5233 30.0771 24.0771 30.7071 24.7071L36.2929 30.2929C36.6834 30.6834 36.6834 31.3166 36.2929 31.7071L30.7071 37.2929C30.0771 37.9229 29 37.4767 29 36.5858Z" fill="#2F2E2E"></path>
    </symbol>

    <symbol fill="none" xmlns="http://www.w3.org/2000/svg" viewBox="0 0 16 27" id="arrow-left">
        <path d="M13.9995 25L3 13.6857L14 0.999999" ></path>
    </symbol>

    <symbol fill="none" xmlns="http://www.w3.org/2000/svg" viewBox="0 0 16 27" id="arrow-right">
        <path d="M2.00051 25L13 13.6857L2 0.999999" ></path>
    </symbol>

    <symbol fill="none" xmlns="http://www.w3.org/2000/svg" viewBox="0 0 19 12" id="arrow-down">
        <path d="M17 2L9.45714 8.99968L2 2"  stroke-width="3"></path>
    </symbol>

    <symbol fill="none" xmlns="http://www.w3.org/2000/svg" viewBox="0 0 9 18" id="Facebook">
        <path fill-rule="evenodd" clip-rule="evenodd" d="M5.48453 17.6768L5.48453 8.83734L7.92459 8.83734L8.24796 5.79123H5.48453L5.48868 4.26662C5.48868 3.47215 5.56416 3.04646 6.70525 3.04646L8.23068 3.04646V0L5.79027 0C2.85895 0 1.8272 1.47769 1.8272 3.9627L1.8272 5.79158H0L0 8.83769H1.8272L1.8272 17.6768H5.48453Z" fill="#E7AC35"></path>
    </symbol>

    <symbol fill="none" xmlns="http://www.w3.org/2000/svg" viewBox="0 0 18 10" id="VK">
        <path fill-rule="evenodd" clip-rule="evenodd" d="M9.69411 9.84627C9.69411 9.84627 10.0128 9.81152 10.176 9.63944C10.3254 9.48177 10.3202 9.18423 10.3202 9.18423C10.3202 9.18423 10.3003 7.79488 10.9575 7.58974C11.6052 7.38799 12.4368 8.93332 13.3194 9.52754C13.9861 9.97682 14.4921 9.87849 14.4921 9.87849L16.8506 9.84627C16.8506 9.84627 18.0838 9.77168 17.4991 8.81973C17.4508 8.74174 17.158 8.1153 15.7461 6.82852C14.2668 5.48155 14.4654 5.6994 16.2461 3.36912C17.3307 1.9501 17.7642 1.08377 17.6287 0.713328C17.5 0.358996 16.702 0.453089 16.702 0.453089L14.0474 0.469195C14.0474 0.469195 13.8505 0.442917 13.7046 0.528533C13.5621 0.612453 13.4697 0.808268 13.4697 0.808268C13.4697 0.808268 13.05 1.90602 12.4895 2.84017C11.3073 4.81018 10.8349 4.91445 10.6415 4.79238C10.1915 4.50671 10.3038 3.64631 10.3038 3.03513C10.3038 1.1253 10.5991 0.329327 9.72952 0.12334C9.44108 0.0546773 9.22864 0.00975009 8.49029 0.00212093C7.54294 -0.00720359 6.74154 0.00551166 6.2873 0.223366C5.98505 0.36832 5.75188 0.692136 5.89438 0.710785C6.06968 0.733672 6.46693 0.815897 6.67764 1.09733C6.94967 1.46098 6.94017 2.27646 6.94017 2.27646C6.94017 2.27646 7.09647 4.52451 6.57487 4.8034C6.21735 4.99498 5.72684 4.6042 4.67241 2.81643C4.13268 1.90093 3.72507 0.888798 3.72507 0.888798C3.72507 0.888798 3.64649 0.699765 3.50572 0.598043C3.3356 0.475129 3.09811 0.436983 3.09811 0.436983L0.575607 0.453089C0.575607 0.453089 0.196497 0.463261 0.057461 0.625169C-0.0660305 0.768427 0.0479616 1.06596 0.0479616 1.06596C0.0479616 1.06596 2.02296 5.60192 4.25962 7.88812C6.31062 9.9836 8.63882 9.84627 8.63882 9.84627H9.69411Z" fill="#EBB745"></path>
    </symbol>

    <symbol fill="none" xmlns="http://www.w3.org/2000/svg" viewBox="0 0 18 19" id="wa">
        <path fill-rule="evenodd" clip-rule="evenodd" d="M9.03782 17.9314H9.03411C7.53411 17.9309 6.06022 17.5546 4.75115 16.8405L0 18.0868L1.27149 13.4426C0.487172 12.0833 0.0744693 10.5415 0.0751419 8.96193C0.077108 4.02036 4.09769 0 9.03773 0C11.4353 0.00103478 13.6856 0.934402 15.3777 2.6285C17.0698 4.32252 18.0012 6.57427 18.0003 8.969C17.9983 13.9095 13.9793 17.9294 9.03782 17.9314ZM4.97287 15.2174L5.24488 15.3788C6.38861 16.0575 7.69967 16.4166 9.03638 16.4172H9.0394C13.1452 16.4172 16.4869 13.0754 16.4886 8.96786C16.4893 6.97738 15.7153 5.10582 14.3088 3.69775C12.9024 2.28968 11.032 1.51385 9.04233 1.51316C4.93334 1.51316 1.59158 4.85463 1.58995 8.96182C1.58937 10.3694 1.9832 11.7402 2.72889 12.9262L2.90601 13.2081L2.15347 15.957L4.97287 15.2174ZM13.5533 11.1012C13.4974 11.0078 13.3481 10.9518 13.1241 10.8396C12.9002 10.7276 11.7992 10.1859 11.5939 10.1111C11.3887 10.0364 11.2393 9.99903 11.09 10.2231C10.9408 10.4473 10.5116 10.9518 10.381 11.1012C10.2503 11.2506 10.1197 11.2694 9.89582 11.1573C9.67187 11.0452 8.95029 10.8087 8.0949 10.0458C7.42916 9.45193 6.97973 8.71862 6.84909 8.49442C6.71846 8.27022 6.83517 8.14906 6.94728 8.03739C7.04803 7.93702 7.17124 7.77577 7.2832 7.64504C7.39516 7.51431 7.43248 7.42084 7.50713 7.27149C7.58178 7.12196 7.54446 6.99124 7.48846 6.87913C7.43248 6.76703 6.98462 5.66474 6.79801 5.21634C6.61622 4.77966 6.4316 4.83882 6.29415 4.83192C6.16368 4.82536 6.01422 4.82398 5.86494 4.82398C5.71566 4.82398 5.47303 4.88003 5.26777 5.10424C5.0625 5.32844 4.48398 5.87023 4.48398 6.97244C4.48398 8.07473 5.28642 9.1396 5.3984 9.28904C5.51036 9.43857 6.9775 11.7005 9.22399 12.6705C9.75828 12.9012 10.1754 13.039 10.5006 13.1422C11.0371 13.3127 11.5253 13.2886 11.9111 13.231C12.3414 13.1667 13.2361 12.6893 13.4228 12.1662C13.6093 11.643 13.6093 11.1946 13.5533 11.1012Z" fill="#EBB745"></path>
    </symbol>

    <symbol fill="none" xmlns="http://www.w3.org/2000/svg" viewBox="0 0 19 19" id="Instagram">
        <path fill-rule="evenodd" clip-rule="evenodd" d="M-4.10731e-07 9.39458C-2.99193e-07 11.9463 0.0111571 12.2665 0.0567652 13.2687C0.102569 14.269 0.260925 14.9517 0.493272 15.5491C0.733253 16.1671 1.05427 16.6913 1.57671 17.2135C2.09895 17.7362 2.62315 18.0572 3.24092 18.2979C3.83852 18.5309 4.52147 18.6894 5.52132 18.7344C6.52352 18.7793 6.84395 18.791 9.39566 18.791C11.9474 18.791 12.2666 18.7797 13.2688 18.7342C14.2691 18.6882 14.9518 18.5299 15.5492 18.2977C16.1672 18.0576 16.6914 17.7365 17.2136 17.2141C17.7363 16.6921 18.0581 16.1679 18.298 15.5503C18.5304 14.9525 18.6887 14.2696 18.7346 13.2695C18.7802 12.2673 18.7913 11.9473 18.7913 9.39575C18.7913 6.84385 18.7802 6.52459 18.7346 5.52239C18.6887 4.52214 18.5304 3.83861 18.298 3.24081C18.0581 2.62304 17.7363 2.09963 17.2136 1.57758C16.6914 1.05495 16.1672 0.73393 15.5494 0.493167C14.9518 0.262191 14.2689 0.103639 13.269 0.056661C12.2668 0.01164 11.9474 -0.000105426 9.39566 -0.000105315C6.84395 -0.000105203 6.52372 0.0116403 5.52151 0.0566614C4.52127 0.103639 3.83852 0.262192 3.24111 0.493168C2.62315 0.73393 2.09895 1.05495 1.57671 1.57758C1.05407 2.10022 0.733056 2.62285 0.493271 3.2414C0.260925 3.84037 0.102569 4.52351 0.0567649 5.52376C0.0111568 6.52596 -5.22176e-07 6.84502 -4.10603e-07 9.39751L-4.10731e-07 9.39458ZM1.69165 10.2373C1.69126 9.98713 1.69165 9.708 1.69165 9.39442C1.69165 6.88578 1.70066 6.58845 1.74568 5.59779C1.78756 4.68172 1.94064 4.18453 2.06924 3.85333C2.23954 3.41487 2.44311 3.10227 2.77196 2.77361C3.1008 2.44477 3.41399 2.24119 3.85246 2.0705C4.18326 1.9419 4.68045 1.78864 5.59653 1.74694C6.58698 1.70192 6.88451 1.69213 9.39198 1.69213C11.8994 1.69213 12.197 1.70192 13.1874 1.74694C14.1035 1.78883 14.6007 1.9419 14.9315 2.0705C15.37 2.2408 15.6822 2.44477 16.0108 2.77361C16.3397 3.10246 16.5433 3.41467 16.7135 3.85333C16.8427 4.18414 16.9954 4.68172 17.0373 5.59779C17.0823 6.58825 17.0921 6.88578 17.0921 9.39442C17.0921 11.9033 17.0823 12.2006 17.0373 13.191C16.995 14.1071 16.842 14.6043 16.7134 14.9357C16.5431 15.3742 16.3395 15.6874 16.0106 16.0162C15.6818 16.3451 15.3694 16.5486 14.9307 16.7193C14.5999 16.8479 14.1027 17.0012 13.1867 17.0429C12.1962 17.0879 11.8987 17.0969 9.38963 17.0969C6.8806 17.0969 6.58464 17.0879 5.59418 17.0429C4.6781 17.001 4.18091 16.8479 3.84972 16.7193C3.41125 16.549 3.09806 16.3451 2.76922 16.0162C2.44037 15.6874 2.2368 15.3742 2.06611 14.9357C1.93692 14.6045 1.78424 14.1071 1.74215 13.1911C1.703 12.3243 1.69126 11.9884 1.6893 10.2373L1.69165 10.2373ZM3.25327 4.37997C3.25327 5.00243 3.7577 5.50745 4.38036 5.50745C5.00282 5.50745 5.50784 5.00243 5.50784 4.37997C5.50784 3.75751 5.00282 3.25249 4.38036 3.25249C3.7579 3.25249 3.25288 3.75751 3.25288 4.37997L3.25327 4.37997ZM4.57078 9.39478C4.57078 12.0594 6.7312 14.2198 9.39584 14.2198C12.0605 14.2198 14.2199 12.0594 14.2199 9.39478C14.2199 6.73013 12.0605 4.5705 9.39584 4.5705C6.73119 4.5705 4.57078 6.73032 4.57078 9.39497L4.57078 9.39478ZM6.2637 9.39525C6.2637 7.66567 7.66581 6.26337 9.39559 6.26337C11.1252 6.26337 12.5275 7.66567 12.5275 9.39525C12.5275 11.125 11.1252 12.5271 9.39559 12.5271C7.66581 12.5271 6.2637 11.125 6.2637 9.39525Z" fill="#EBB745"></path>
    </symbol>

    <symbol fill="none" xmlns="http://www.w3.org/2000/svg" viewBox="0 0 15 29" id="Vector-video">
        <path d="M0 27.5287V1.47131C0 0.57248 1.09354 0.129989 1.7186 0.77589L14.327 13.8046C14.7022 14.1923 14.7022 14.8077 14.327 15.1954L1.7186 28.2241C1.09354 28.87 0 28.4275 0 27.5287Z" fill="#2F2E2E"></path>
    </symbol>

</svg>